<svg width="35" height="40" viewBox="0 0 35 40" fill="none" xmlns="http://www.w3.org/2000/svg">
<g clip-path="url(#clip0_63_186)">
<path d="M17.5 0C16.1171 0 15 1.11719 15 2.5V3.89844C9.3359 4.79688 4.99996 9.70312 4.99996 15.625V18.2344C4.99996 21.7812 3.78902 25.2266 1.57809 27.9922L0.414025 29.4531C-0.0391005 30.0156 -0.125038 30.7891 0.187462 31.4375C0.499962 32.0859 1.15621 32.5 1.87496 32.5H33.125C33.8437 32.5 34.5 32.0859 34.8125 31.4375C35.125 30.7891 35.039 30.0156 34.5859 29.4531L33.4218 28C31.2109 25.2266 30 21.7812 30 18.2344V15.625C30 9.70312 25.664 4.79688 20 3.89844V2.5C20 1.11719 18.8828 0 17.5 0ZM17.5 7.5H18.125C22.6093 7.5 26.25 11.1406 26.25 15.625V18.2344C26.25 21.9766 27.3359 25.625 29.3515 28.75H5.6484C7.66402 25.625 8.74996 21.9766 8.74996 18.2344V15.625C8.74996 11.1406 12.3906 7.5 16.875 7.5H17.5ZM22.5 35H17.5H12.5C12.5 36.3281 13.0234 37.6016 13.9609 38.5391C14.8984 39.4766 16.1718 40 17.5 40C18.8281 40 20.1015 39.4766 21.039 38.5391C21.9765 37.6016 22.5 36.3281 22.5 35Z" fill="black"/>
</g>
<defs>
<clipPath id="clip0_63_186">
<rect width="35" height="40" fill="white"/>
</clipPath>
</defs>
</svg>
