<svg width="28" height="28" viewBox="0 0 28 28" fill="none" xmlns="http://www.w3.org/2000/svg">
<g clip-path="url(#clip0_63_189)">
<path d="M20.147 1.00078L17.1009 4.05234L23.9478 10.8992L26.9939 7.85313C28.1915 6.65547 28.1915 4.71953 26.9939 3.52188L24.4782 1.00078C23.2806 -0.196875 21.3446 -0.196875 20.147 1.00078ZM15.7501 5.17344L15.247 5.32656L7.36652 7.68906C6.27824 8.01719 5.41418 8.84844 5.05324 9.93125L0.207926 24.3797C0.000113398 24.9977 0.153238 25.6867 0.607145 26.1516L9.00714 17.757C8.84308 17.4125 8.75011 17.0297 8.75011 16.625C8.75011 15.1758 9.92589 14 11.3751 14C12.8243 14 14.0001 15.1758 14.0001 16.625C14.0001 18.0742 12.8243 19.25 11.3751 19.25C10.9704 19.25 10.5876 19.157 10.2431 18.993L1.84308 27.393C2.31339 27.8469 2.99699 28.0055 3.61496 27.7922L18.0689 22.9469C19.1462 22.5859 19.9829 21.7219 20.3111 20.6336L22.6735 12.7531L22.8267 12.25L15.7501 5.17344Z" fill="black"/>
</g>
<defs>
<clipPath id="clip0_63_189">
<rect width="28" height="28" fill="white"/>
</clipPath>
</defs>
</svg>
